<svg xmlns="http://www.w3.org/2000/svg" xmlns:xlink="http://www.w3.org/1999/xlink" width="1160" height="2370" version="1.1"><g><g><rect width="1160" height="2370" x="0" y="0" fill="#fff" stroke="none"/></g><g><text x="514.941" y="33.927" fill="#000" stroke="none" dominant-baseline="alphabetic" font-family="sans-serif" font-size="30" font-style="normal" font-weight="normal" text-anchor="start" text-decoration="normal">xd-deploy</text></g><g><path fill="none" stroke="#000" stroke-dasharray="17.398 7.539" stroke-miterlimit="10" stroke-width="1.885" d="M 32.3089869 178.34272341300002 L 32.3089869 2370.175555500881" paint-order="fill stroke markers"/><path fill="none" stroke="#000" stroke-dasharray="17.398 7.539" stroke-miterlimit="10" stroke-width="1.885" d="M 195.93257060000002 178.34272341300002 L 195.93257060000002 2370.175555500881" paint-order="fill stroke markers"/><path fill="none" stroke="#000" stroke-dasharray="17.398 7.539" stroke-miterlimit="10" stroke-width="1.885" d="M 421.86514120000004 178.34272341300002 L 421.86514120000004 2370.175555500881" paint-order="fill stroke markers"/><path fill="none" stroke="#000" stroke-dasharray="17.398 7.539" stroke-miterlimit="10" stroke-width="1.885" d="M 810.7977118 178.34272341300002 L 810.7977118 2370.175555500881" paint-order="fill stroke markers"/><path fill="none" stroke="#000" stroke-dasharray="17.398 7.539" stroke-miterlimit="10" stroke-width="1.885" d="M 1108.572984 178.34272341300002 L 1108.572984 2370.175555500881" paint-order="fill stroke markers"/></g><g><g><path fill="#fff" stroke="#000" stroke-miterlimit="10" stroke-width="3.845" d="M 45.201231966 82.66869423899998 A 12.892245066 12.892245066 0 1 1 45.20122551987801 82.65580199608267 M 32.3089869 95.56093930499998 L 32.3089869 123.15486734099997 M 16.024045764 105.51284777699998 L 48.593928036 105.51284777699998 M 32.3089869 123.15486734099997 L 16.024045764 148.93935747299997 M 32.3089869 123.15486734099997 L 48.593928036 148.93935747299997" paint-order="fill stroke markers"/></g><g><text x="11.309" y="171.557" fill="#000" stroke="none" dominant-baseline="alphabetic" font-family="sans-serif" font-size="20" font-style="normal" font-weight="normal" text-anchor="start" text-decoration="normal">User</text></g><path fill="none" stroke="none"/><g><path fill="#fff" stroke="#000" stroke-miterlimit="10" stroke-width="3.619" d="M 125.89206902700002 117.27419415299998 L 265.973072173 117.27419415299998 L 265.973072173 178.342723413 L 125.89206902700002 178.342723413 L 125.89206902700002 117.27419415299998 Z" paint-order="fill stroke markers"/></g><g><text x="150.433" y="155.725" fill="#000" stroke="none" dominant-baseline="alphabetic" font-family="sans-serif" font-size="20" font-style="normal" font-weight="normal" text-anchor="start" text-decoration="normal">Dev Client</text></g><path fill="none" stroke="none"/><g><path fill="#fff" stroke="#000" stroke-miterlimit="10" stroke-width="3.619" d="M 367.824639627 117.27419415299998 L 475.905642773 117.27419415299998 L 475.905642773 178.342723413 L 367.824639627 178.342723413 L 367.824639627 117.27419415299998 Z" paint-order="fill stroke markers"/></g><g><text x="392.365" y="155.725" fill="#000" stroke="none" dominant-baseline="alphabetic" font-family="sans-serif" font-size="20" font-style="normal" font-weight="normal" text-anchor="start" text-decoration="normal">Server</text></g><path fill="none" stroke="none"/><g><path fill="#fff" stroke="#000" stroke-miterlimit="10" stroke-width="3.619" d="M 751.757210227 117.27419415299998 L 869.8382133729999 117.27419415299998 L 869.8382133729999 178.342723413 L 751.757210227 178.342723413 L 751.757210227 117.27419415299998 Z" paint-order="fill stroke markers"/></g><g><text x="776.298" y="155.725" fill="#000" stroke="none" dominant-baseline="alphabetic" font-family="sans-serif" font-size="20" font-style="normal" font-weight="normal" text-anchor="start" text-decoration="normal">Client A</text></g><g><path fill="#fff" stroke="#000" stroke-miterlimit="10" stroke-width="3.845" d="M 1121.465229066 82.66869423899998 A 12.892245066 12.892245066 0 1 1 1121.465222619878 82.65580199608267 M 1108.572984 95.56093930499998 L 1108.572984 123.15486734099997 M 1092.2880428639999 105.51284777699998 L 1124.857925136 105.51284777699998 M 1108.572984 123.15486734099997 L 1092.2880428639999 148.93935747299997 M 1108.572984 123.15486734099997 L 1124.857925136 148.93935747299997" paint-order="fill stroke markers"/></g><g><text x="1067.573" y="171.557" fill="#000" stroke="none" dominant-baseline="alphabetic" font-family="sans-serif" font-size="20" font-style="normal" font-weight="normal" text-anchor="start" text-decoration="normal">Test user</text></g></g><g><path fill="#fff" stroke="#000" stroke-miterlimit="10" stroke-width="1.885" d="M 410.55615430000006 384.16628499300003 L 433.1741281 384.16628499300003 L 433.1741281 2227.682320560881 L 410.55615430000006 2227.682320560881 L 410.55615430000006 384.16628499300003" paint-order="fill stroke markers"/><path fill="#fff" stroke="#000" stroke-miterlimit="10" stroke-width="1.885" d="M 184.6235837 533.444912073 L 207.24155750000003 533.444912073 L 207.24155750000003 854.620140033 L 184.6235837 854.620140033 L 184.6235837 533.444912073" paint-order="fill stroke markers"/><path fill="#fff" stroke="#000" stroke-miterlimit="10" stroke-width="1.885" d="M 799.4887249 917.9504666729999 L 822.1066987 917.9504666729999 L 822.1066987 2291.012647200881 L 799.4887249 2291.012647200881 L 799.4887249 917.9504666729999" paint-order="fill stroke markers"/><path fill="#fff" stroke="#000" stroke-miterlimit="10" stroke-width="1.885" d="M 184.6235837 1492.4470011929998 L 207.24155750000003 1492.4470011929998 L 207.24155750000003 1813.6222291529996 L 184.6235837 1813.6222291529996 L 184.6235837 1492.4470011929998" paint-order="fill stroke markers"/><path fill="#fff" stroke="#000" stroke-miterlimit="10" stroke-width="1.885" d="M 672.13254848 223.57867101300002 L 929.1066987 223.57867101300002 L 949.46287512 243.93484743300002 L 949.46287512 320.835958353 L 672.13254848 320.835958353 L 672.13254848 223.57867101300002 M 929.1066987 223.57867101300002 L 929.1066987 243.93484743300002 L 949.46287512 243.93484743300002" paint-order="fill stroke markers"/><g><text x="703.798" y="255.244" fill="#000" stroke="none" dominant-baseline="alphabetic" font-family="sans-serif" font-size="20" font-style="normal" font-weight="normal" text-anchor="start" text-decoration="normal">w.l.o.g.,</text><text x="703.798" y="277.862" fill="#000" stroke="none" dominant-baseline="alphabetic" font-family="sans-serif" font-size="20" font-style="normal" font-weight="normal" text-anchor="start" text-decoration="normal">More clients on multiple</text><text x="703.798" y="300.48" fill="#000" stroke="none" dominant-baseline="alphabetic" font-family="sans-serif" font-size="20" font-style="normal" font-weight="normal" text-anchor="start" text-decoration="normal">machines may exist...</text></g><g><g><rect width="46.785" height="29.403" x="198.04" y="354.763" fill="#fff" stroke="none"/></g><text x="201.433" y="375.119" fill="#000" stroke="none" dominant-baseline="alphabetic" font-family="sans-serif" font-size="20" font-style="normal" font-weight="normal" text-anchor="start" text-decoration="normal">start</text></g><g><path fill="none" stroke="#000" stroke-miterlimit="10" stroke-width="1.885" d="M 32.3089869 384.16628499300003 L 406.78649200000007 384.16628499300003" paint-order="fill stroke markers"/><g><path fill="#000" stroke="none" d="M 391.70784280000004 374.742129243 L 410.55615430000006 384.16628499300003 L 391.70784280000004 393.59044074300004 Z" paint-order="stroke fill markers" transform="translate(410.55615430000006,384.16628499300003) translate(-410.55615430000006,-384.16628499300003)"/></g></g><g><g><rect width="177.785" height="29.403" x="459.939" y="418.093" fill="#fff" stroke="none"/></g><text x="463.331" y="438.449" fill="#000" stroke="none" dominant-baseline="alphabetic" font-family="sans-serif" font-size="20" font-style="normal" font-weight="normal" text-anchor="start" text-decoration="normal">Listen on port 8080</text></g><g><path fill="none" stroke="#000" stroke-miterlimit="10" stroke-width="1.885" d="M 433.1741281 447.496611633 L 523.6460233 447.496611633 L 523.6460233 470.114585433 L 436.9437904 470.114585433" paint-order="fill stroke markers"/><g><path fill="#000" stroke="none" d="M 452.02243960000004 460.690429683 L 433.1741281 470.114585433 L 452.02243960000004 479.538741183 Z" paint-order="stroke fill markers" transform="translate(433.1741281,470.114585433) translate(-433.1741281,-470.114585433)"/></g></g><g><g><rect width="98.785" height="29.403" x="59.074" y="504.042" fill="#fff" stroke="none"/></g><text x="62.466" y="524.398" fill="#000" stroke="none" dominant-baseline="alphabetic" font-family="sans-serif" font-size="20" font-style="normal" font-weight="normal" text-anchor="start" text-decoration="normal">Run install</text></g><g><path fill="none" stroke="#000" stroke-miterlimit="10" stroke-width="1.885" d="M 32.3089869 533.444912073 L 180.85392140000002 533.444912073" paint-order="fill stroke markers"/><g><path fill="#000" stroke="none" d="M 165.77527220000002 524.020756323 L 184.6235837 533.444912073 L 165.77527220000002 542.8690678229999 Z" paint-order="stroke fill markers" transform="translate(184.6235837,533.444912073) translate(-184.6235837,-533.444912073)"/></g></g><g><g><rect width="114.785" height="29.403" x="234.006" y="567.372" fill="#fff" stroke="none"/></g><text x="237.399" y="587.728" fill="#000" stroke="none" dominant-baseline="alphabetic" font-family="sans-serif" font-size="20" font-style="normal" font-weight="normal" text-anchor="start" text-decoration="normal">Zip directory</text></g><g><path fill="none" stroke="#000" stroke-miterlimit="10" stroke-width="1.885" d="M 207.24155750000003 596.775238713 L 297.71345270000006 596.775238713 L 297.71345270000006 619.393212513 L 211.01121980000002 619.393212513" paint-order="fill stroke markers"/><g><path fill="#000" stroke="none" d="M 226.08986900000002 609.969056763 L 207.24155750000003 619.393212513 L 226.08986900000002 628.8173682629999 Z" paint-order="stroke fill markers" transform="translate(207.24155750000003,619.393212513) translate(-207.24155750000003,-619.393212513)"/></g></g><g><g><rect width="149.785" height="29.403" x="234.006" y="653.32" fill="#fff" stroke="none"/></g><g><rect width="107.785" height="29.403" x="234.006" y="675.938" fill="#fff" stroke="none"/></g><text x="237.399" y="673.676" fill="#000" stroke="none" dominant-baseline="alphabetic" font-family="sans-serif" font-size="20" font-style="normal" font-weight="normal" text-anchor="start" text-decoration="normal">POST /post/[id]</text><text x="237.399" y="696.294" fill="#000" stroke="none" dominant-baseline="alphabetic" font-family="sans-serif" font-size="20" font-style="normal" font-weight="normal" text-anchor="start" text-decoration="normal">[zipped file]</text></g><g><path fill="none" stroke="#000" stroke-miterlimit="10" stroke-width="1.885" d="M 207.24155750000003 705.341512953 L 406.78649200000007 705.341512953" paint-order="fill stroke markers"/><g><path fill="#000" stroke="none" d="M 391.70784280000004 695.917357203 L 410.55615430000006 705.341512953 L 391.70784280000004 714.765668703 Z" paint-order="stroke fill markers" transform="translate(410.55615430000006,705.341512953) translate(-410.55615430000006,-705.341512953)"/></g></g><g><g><rect width="233.785" height="29.403" x="459.939" y="739.268" fill="#fff" stroke="none"/></g><text x="463.331" y="759.625" fill="#000" stroke="none" dominant-baseline="alphabetic" font-family="sans-serif" font-size="20" font-style="normal" font-weight="normal" text-anchor="start" text-decoration="normal">Extract to deployment/[id]</text></g><g><path fill="none" stroke="#000" stroke-miterlimit="10" stroke-width="1.885" d="M 433.1741281 768.6718395930001 L 523.6460233 768.6718395930001 L 523.6460233 791.289813393 L 436.9437904 791.289813393" paint-order="fill stroke markers"/><g><path fill="#000" stroke="none" d="M 452.02243960000004 781.8656576430001 L 433.1741281 791.289813393 L 452.02243960000004 800.713969143 Z" paint-order="stroke fill markers" transform="translate(433.1741281,791.289813393) translate(-433.1741281,-791.289813393)"/></g></g><g><g><rect width="71.785" height="29.403" x="273.006" y="825.217" fill="#fff" stroke="none"/></g><text x="276.399" y="845.573" fill="#000" stroke="none" dominant-baseline="alphabetic" font-family="sans-serif" font-size="20" font-style="normal" font-weight="normal" text-anchor="start" text-decoration="normal">200 Ok</text></g><g><path fill="none" stroke="#000" stroke-dasharray="9.047" stroke-miterlimit="10" stroke-width="1.885" d="M 410.55615430000006 854.620140033 L 211.01121980000002 854.620140033" paint-order="fill stroke markers"/><g><path fill="#000" stroke="none" d="M 226.08986900000002 845.195984283 L 207.24155750000003 854.620140033 L 226.08986900000002 864.0442957829999 Z" paint-order="stroke fill markers" transform="translate(207.24155750000003,854.620140033) translate(-207.24155750000003,-854.620140033)"/></g></g><g><g><rect width="46.785" height="29.403" x="941.947" y="888.547" fill="#fff" stroke="none"/></g><text x="945.34" y="908.903" fill="#000" stroke="none" dominant-baseline="alphabetic" font-family="sans-serif" font-size="20" font-style="normal" font-weight="normal" text-anchor="start" text-decoration="normal">start</text></g><g><path fill="none" stroke="#000" stroke-miterlimit="10" stroke-width="1.885" d="M 1108.572984 917.9504666729999 L 825.8763610000001 917.9504666729999" paint-order="fill stroke markers"/><g><path fill="#000" stroke="none" d="M 840.9550102000001 908.526310923 L 822.1066987 917.9504666729999 L 840.9550102000001 927.3746224229999 Z" paint-order="stroke fill markers" transform="translate(822.1066987,917.9504666729999) translate(-822.1066987,-917.9504666729999)"/></g></g><g><g><rect width="231.785" height="29.403" x="500.439" y="951.877" fill="#fff" stroke="none"/></g><text x="503.831" y="972.234" fill="#000" stroke="none" dominant-baseline="alphabetic" font-family="sans-serif" font-size="20" font-style="normal" font-weight="normal" text-anchor="start" text-decoration="normal">Connect to Socket server</text></g><g><path fill="none" stroke="#000" stroke-miterlimit="10" stroke-width="1.885" d="M 799.4887249 981.2807933129999 L 436.9437904 981.2807933129999" paint-order="fill stroke markers"/><g><path fill="none" stroke="#000" stroke-miterlimit="10" stroke-width="1.885" d="M 452.02243960000004 971.8566375629999 L 435.05895925000004 981.2807933129999 L 452.02243960000004 990.7049490629998" paint-order="fill stroke markers" transform="translate(433.1741281,981.2807933129999) translate(-433.1741281,-981.2807933129999)"/></g></g><g><g><rect width="121.785" height="29.403" x="555.439" y="1015.208" fill="#fff" stroke="none"/></g><text x="558.831" y="1035.564" fill="#000" stroke="none" dominant-baseline="alphabetic" font-family="sans-serif" font-size="20" font-style="normal" font-weight="normal" text-anchor="start" text-decoration="normal">GET /plugins</text></g><g><path fill="none" stroke="#000" stroke-miterlimit="10" stroke-width="1.885" d="M 799.4887249 1044.6111199529998 L 436.9437904 1044.6111199529998" paint-order="fill stroke markers"/><g><path fill="#000" stroke="none" d="M 452.02243960000004 1035.186964203 L 433.1741281 1044.6111199529998 L 452.02243960000004 1054.0352757029998 Z" paint-order="stroke fill markers" transform="translate(433.1741281,1044.6111199529998) translate(-433.1741281,-1044.6111199529998)"/></g></g><g><g><rect width="174.785" height="29.403" x="528.939" y="1078.538" fill="#fff" stroke="none"/></g><text x="532.331" y="1098.894" fill="#000" stroke="none" dominant-baseline="alphabetic" font-family="sans-serif" font-size="20" font-style="normal" font-weight="normal" text-anchor="start" text-decoration="normal">200 OK [plugin list]</text></g><g><path fill="none" stroke="#000" stroke-dasharray="9.047" stroke-miterlimit="10" stroke-width="1.885" d="M 433.1741281 1107.941446593 L 795.7190625999999 1107.941446593" paint-order="fill stroke markers"/><g><path fill="#000" stroke="none" d="M 780.6404133999999 1098.517290843 L 799.4887249 1107.941446593 L 780.6404133999999 1117.3656023429999 Z" paint-order="stroke fill markers" transform="translate(799.4887249,1107.941446593) translate(-799.4887249,-1107.941446593)"/></g></g><g><g><rect width="155.785" height="29.403" x="538.439" y="1141.868" fill="#fff" stroke="none"/></g><text x="541.831" y="1162.225" fill="#000" stroke="none" dominant-baseline="alphabetic" font-family="sans-serif" font-size="20" font-style="normal" font-weight="normal" text-anchor="start" text-decoration="normal">GET /plugins/[id]</text></g><g><path fill="none" stroke="#000" stroke-miterlimit="10" stroke-width="1.885" d="M 799.4887249 1171.271773233 L 436.9437904 1171.271773233" paint-order="fill stroke markers"/><g><path fill="#000" stroke="none" d="M 452.02243960000004 1161.847617483 L 433.1741281 1171.271773233 L 452.02243960000004 1180.695928983 Z" paint-order="stroke fill markers" transform="translate(433.1741281,1171.271773233) translate(-433.1741281,-1171.271773233)"/></g></g><path fill="#fff" stroke="#000" stroke-miterlimit="10" stroke-width="1.885" d="M 799.4887249 1231.209403803 L 788.1797379999999 1231.209403803 M 504.8494113599999 1205.1987339329999 L 767.8235615799999 1205.1987339329999 L 788.1797379999999 1225.554910353 L 788.1797379999999 1257.220073673 L 504.8494113599999 1257.220073673 L 504.8494113599999 1205.1987339329999 M 767.8235615799999 1205.1987339329999 L 767.8235615799999 1225.554910353 L 788.1797379999999 1225.554910353" paint-order="fill stroke markers"/><g><text x="536.515" y="1236.864" fill="#000" stroke="none" dominant-baseline="alphabetic" font-family="sans-serif" font-size="20" font-style="normal" font-weight="normal" text-anchor="start" text-decoration="normal">foreach [id] in [plugin list]</text></g><g><g><rect width="80.785" height="29.403" x="459.939" y="1291.147" fill="#fff" stroke="none"/></g><g><rect width="312.785" height="29.403" x="459.939" y="1313.765" fill="#fff" stroke="none"/></g><text x="463.331" y="1311.503" fill="#000" stroke="none" dominant-baseline="alphabetic" font-family="sans-serif" font-size="20" font-style="normal" font-weight="normal" text-anchor="start" text-decoration="normal">200 OK</text><text x="463.331" y="1334.121" fill="#000" stroke="none" dominant-baseline="alphabetic" font-family="sans-serif" font-size="20" font-style="normal" font-weight="normal" text-anchor="start" text-decoration="normal">[zipped version of deployment/[id]]</text></g><g><path fill="none" stroke="#000" stroke-dasharray="9.047" stroke-miterlimit="10" stroke-width="1.885" d="M 433.1741281 1343.1683741129998 L 795.7190625999999 1343.1683741129998" paint-order="fill stroke markers"/><g><path fill="#000" stroke="none" d="M 780.6404133999999 1333.7442183629998 L 799.4887249 1343.1683741129998 L 780.6404133999999 1352.5925298629998 Z" paint-order="stroke fill markers" transform="translate(799.4887249,1343.1683741129998) translate(-799.4887249,-1343.1683741129998)"/></g></g><g><g><rect width="251.785" height="29.403" x="848.871" y="1377.095" fill="#fff" stroke="none"/></g><text x="852.264" y="1397.452" fill="#000" stroke="none" dominant-baseline="alphabetic" font-family="sans-serif" font-size="20" font-style="normal" font-weight="normal" text-anchor="start" text-decoration="normal">Install in XD plugin directory</text></g><g><path fill="none" stroke="#000" stroke-miterlimit="10" stroke-width="1.885" d="M 822.1066987 1406.4987007529996 L 912.5785939 1406.4987007529996 L 912.5785939 1429.1166745529997 L 825.8763610000001 1429.1166745529997" paint-order="fill stroke markers"/><g><path fill="#000" stroke="none" d="M 840.9550102000001 1419.6925188029998 L 822.1066987 1429.1166745529997 L 840.9550102000001 1438.5408303029997 Z" paint-order="stroke fill markers" transform="translate(822.1066987,1429.1166745529997) translate(-822.1066987,-1429.1166745529997)"/></g></g><g><g><rect width="98.785" height="29.403" x="59.074" y="1463.044" fill="#fff" stroke="none"/></g><text x="62.466" y="1483.4" fill="#000" stroke="none" dominant-baseline="alphabetic" font-family="sans-serif" font-size="20" font-style="normal" font-weight="normal" text-anchor="start" text-decoration="normal">Run install</text></g><g><path fill="none" stroke="#000" stroke-miterlimit="10" stroke-width="1.885" d="M 32.3089869 1492.4470011929998 L 180.85392140000002 1492.4470011929998" paint-order="fill stroke markers"/><g><path fill="#000" stroke="none" d="M 165.77527220000002 1483.0228454429998 L 184.6235837 1492.4470011929998 L 165.77527220000002 1501.8711569429997 Z" paint-order="stroke fill markers" transform="translate(184.6235837,1492.4470011929998) translate(-184.6235837,-1492.4470011929998)"/></g></g><g><g><rect width="114.785" height="29.403" x="234.006" y="1526.374" fill="#fff" stroke="none"/></g><text x="237.399" y="1546.73" fill="#000" stroke="none" dominant-baseline="alphabetic" font-family="sans-serif" font-size="20" font-style="normal" font-weight="normal" text-anchor="start" text-decoration="normal">Zip directory</text></g><g><path fill="none" stroke="#000" stroke-miterlimit="10" stroke-width="1.885" d="M 207.24155750000003 1555.7773278329996 L 297.71345270000006 1555.7773278329996 L 297.71345270000006 1578.3953016329997 L 211.01121980000002 1578.3953016329997" paint-order="fill stroke markers"/><g><path fill="#000" stroke="none" d="M 226.08986900000002 1568.9711458829997 L 207.24155750000003 1578.3953016329997 L 226.08986900000002 1587.8194573829996 Z" paint-order="stroke fill markers" transform="translate(207.24155750000003,1578.3953016329997) translate(-207.24155750000003,-1578.3953016329997)"/></g></g><g><g><rect width="149.785" height="29.403" x="234.006" y="1612.322" fill="#fff" stroke="none"/></g><g><rect width="107.785" height="29.403" x="234.006" y="1634.94" fill="#fff" stroke="none"/></g><text x="237.399" y="1632.678" fill="#000" stroke="none" dominant-baseline="alphabetic" font-family="sans-serif" font-size="20" font-style="normal" font-weight="normal" text-anchor="start" text-decoration="normal">POST /post/[id]</text><text x="237.399" y="1655.296" fill="#000" stroke="none" dominant-baseline="alphabetic" font-family="sans-serif" font-size="20" font-style="normal" font-weight="normal" text-anchor="start" text-decoration="normal">[zipped file]</text></g><g><path fill="none" stroke="#000" stroke-miterlimit="10" stroke-width="1.885" d="M 207.24155750000003 1664.3436020729996 L 406.78649200000007 1664.3436020729996" paint-order="fill stroke markers"/><g><path fill="#000" stroke="none" d="M 391.70784280000004 1654.9194463229996 L 410.55615430000006 1664.3436020729996 L 391.70784280000004 1673.7677578229996 Z" paint-order="stroke fill markers" transform="translate(410.55615430000006,1664.3436020729996) translate(-410.55615430000006,-1664.3436020729996)"/></g></g><g><g><rect width="233.785" height="29.403" x="459.939" y="1698.271" fill="#fff" stroke="none"/></g><text x="463.331" y="1718.627" fill="#000" stroke="none" dominant-baseline="alphabetic" font-family="sans-serif" font-size="20" font-style="normal" font-weight="normal" text-anchor="start" text-decoration="normal">Extract to deployment/[id]</text></g><g><path fill="none" stroke="#000" stroke-miterlimit="10" stroke-width="1.885" d="M 433.1741281 1727.6739287129994 L 523.6460233 1727.6739287129994 L 523.6460233 1750.2919025129995 L 436.9437904 1750.2919025129995" paint-order="fill stroke markers"/><g><path fill="#000" stroke="none" d="M 452.02243960000004 1740.8677467629996 L 433.1741281 1750.2919025129995 L 452.02243960000004 1759.7160582629995 Z" paint-order="stroke fill markers" transform="translate(433.1741281,1750.2919025129995) translate(-433.1741281,-1750.2919025129995)"/></g></g><g><g><rect width="71.785" height="29.403" x="273.006" y="1784.219" fill="#fff" stroke="none"/></g><text x="276.399" y="1804.575" fill="#000" stroke="none" dominant-baseline="alphabetic" font-family="sans-serif" font-size="20" font-style="normal" font-weight="normal" text-anchor="start" text-decoration="normal">200 Ok</text></g><g><path fill="none" stroke="#000" stroke-dasharray="9.047" stroke-miterlimit="10" stroke-width="1.885" d="M 410.55615430000006 1813.6222291529996 L 211.01121980000002 1813.6222291529996" paint-order="fill stroke markers"/><g><path fill="#000" stroke="none" d="M 226.08986900000002 1804.1980734029996 L 207.24155750000003 1813.6222291529996 L 226.08986900000002 1823.0463849029995 Z" paint-order="stroke fill markers" transform="translate(207.24155750000003,1813.6222291529996) translate(-207.24155750000003,-1813.6222291529996)"/></g></g><g><g><rect width="203.785" height="29.403" x="514.439" y="1847.549" fill="#fff" stroke="none"/></g><text x="517.831" y="1867.905" fill="#000" stroke="none" dominant-baseline="alphabetic" font-family="sans-serif" font-size="20" font-style="normal" font-weight="normal" text-anchor="start" text-decoration="normal">Notify of update of [id]</text></g><g><path fill="none" stroke="#000" stroke-miterlimit="10" stroke-width="1.885" d="M 433.1741281 1861.2711450008815 L 795.7190625999999 1928.426796739658" paint-order="fill stroke markers"/><g><path fill="none" stroke="#000" stroke-miterlimit="10" stroke-width="1.885" d="M 780.6404133999999 1919.7009106508815 L 797.60389375 1929.1250664008815 L 780.6404133999999 1938.5492221508814" paint-order="fill stroke markers" transform="translate(799.4887249,1929.1250664008815) rotate(10.494181647299541,0,0) translate(-799.4887249,-1929.1250664008815)"/></g></g><g><g><rect width="155.785" height="29.403" x="538.439" y="1963.052" fill="#fff" stroke="none"/></g><text x="541.831" y="1983.408" fill="#000" stroke="none" dominant-baseline="alphabetic" font-family="sans-serif" font-size="20" font-style="normal" font-weight="normal" text-anchor="start" text-decoration="normal">GET /plugins/[id]</text></g><g><path fill="none" stroke="#000" stroke-miterlimit="10" stroke-width="1.885" d="M 799.4887249 1992.4553930408815 L 436.9437904 1992.4553930408815" paint-order="fill stroke markers"/><g><path fill="#000" stroke="none" d="M 452.02243960000004 1983.0312372908816 L 433.1741281 1992.4553930408815 L 452.02243960000004 2001.8795487908815 Z" paint-order="stroke fill markers" transform="translate(433.1741281,1992.4553930408815) translate(-433.1741281,-1992.4553930408815)"/></g></g><g><g><rect width="80.785" height="29.403" x="459.939" y="2026.382" fill="#fff" stroke="none"/></g><g><rect width="312.785" height="29.403" x="459.939" y="2049" fill="#fff" stroke="none"/></g><text x="463.331" y="2046.739" fill="#000" stroke="none" dominant-baseline="alphabetic" font-family="sans-serif" font-size="20" font-style="normal" font-weight="normal" text-anchor="start" text-decoration="normal">200 OK</text><text x="463.331" y="2069.357" fill="#000" stroke="none" dominant-baseline="alphabetic" font-family="sans-serif" font-size="20" font-style="normal" font-weight="normal" text-anchor="start" text-decoration="normal">[zipped version of deployment/[id]]</text></g><g><path fill="none" stroke="#000" stroke-dasharray="9.047" stroke-miterlimit="10" stroke-width="1.885" d="M 433.1741281 2078.4036934808814 L 795.7190625999999 2078.4036934808814" paint-order="fill stroke markers"/><g><path fill="#000" stroke="none" d="M 780.6404133999999 2068.9795377308815 L 799.4887249 2078.4036934808814 L 780.6404133999999 2087.8278492308814 Z" paint-order="stroke fill markers" transform="translate(799.4887249,2078.4036934808814) translate(-799.4887249,-2078.4036934808814)"/></g></g><g><g><rect width="251.785" height="29.403" x="848.871" y="2112.331" fill="#fff" stroke="none"/></g><text x="852.264" y="2132.687" fill="#000" stroke="none" dominant-baseline="alphabetic" font-family="sans-serif" font-size="20" font-style="normal" font-weight="normal" text-anchor="start" text-decoration="normal">Install in XD plugin directory</text></g><g><path fill="none" stroke="#000" stroke-miterlimit="10" stroke-width="1.885" d="M 822.1066987 2141.7340201208813 L 912.5785939 2141.7340201208813 L 912.5785939 2164.3519939208813 L 825.8763610000001 2164.3519939208813" paint-order="fill stroke markers"/><g><path fill="#000" stroke="none" d="M 840.9550102000001 2154.9278381708814 L 822.1066987 2164.3519939208813 L 840.9550102000001 2173.7761496708813 Z" paint-order="stroke fill markers" transform="translate(822.1066987,2164.3519939208813) translate(-822.1066987,-2164.3519939208813)"/></g></g><g><g><rect width="46.785" height="29.403" x="198.04" y="2198.279" fill="#fff" stroke="none"/></g><text x="201.433" y="2218.635" fill="#000" stroke="none" dominant-baseline="alphabetic" font-family="sans-serif" font-size="20" font-style="normal" font-weight="normal" text-anchor="start" text-decoration="normal">Stop</text></g><g><path fill="none" stroke="#000" stroke-miterlimit="10" stroke-width="1.885" d="M 32.3089869 2227.682320560881 L 406.78649200000007 2227.682320560881" paint-order="fill stroke markers"/><g><path fill="#000" stroke="none" d="M 391.70784280000004 2218.258164810881 L 410.55615430000006 2227.682320560881 L 391.70784280000004 2237.106476310881 Z" paint-order="stroke fill markers" transform="translate(410.55615430000006,2227.682320560881) translate(-410.55615430000006,-2227.682320560881)"/></g></g><g><g><rect width="46.785" height="29.403" x="941.947" y="2261.609" fill="#fff" stroke="none"/></g><text x="945.34" y="2281.965" fill="#000" stroke="none" dominant-baseline="alphabetic" font-family="sans-serif" font-size="20" font-style="normal" font-weight="normal" text-anchor="start" text-decoration="normal">Stop</text></g><g><path fill="none" stroke="#000" stroke-miterlimit="10" stroke-width="1.885" d="M 1108.572984 2291.012647200881 L 825.8763610000001 2291.012647200881" paint-order="fill stroke markers"/><g><path fill="#000" stroke="none" d="M 840.9550102000001 2281.588491450881 L 822.1066987 2291.012647200881 L 840.9550102000001 2300.436802950881 Z" paint-order="stroke fill markers" transform="translate(822.1066987,2291.012647200881) translate(-822.1066987,-2291.012647200881)"/></g></g></g></g></svg>